<?xml version="1.0" encoding="UTF-8" standalone="no"?>
<!-- Created with Inkscape (http://www.inkscape.org/) -->

<svg
   width="960mm"
   height="700mm"
   viewBox="0 0 960 700"
   version="1.1"
   id="svg5"
   xml:space="preserve"
   inkscape:export-filename="corazon.png"
   inkscape:export-xdpi="96"
   inkscape:export-ydpi="96"
   inkscape:version="1.2.1 (9c6d41e410, 2022-07-14)"
   sodipodi:docname="corazon.svg"
   xmlns:inkscape="http://www.inkscape.org/namespaces/inkscape"
   xmlns:sodipodi="http://sodipodi.sourceforge.net/DTD/sodipodi-0.dtd"
   xmlns="http://www.w3.org/2000/svg"
   xmlns:svg="http://www.w3.org/2000/svg"><sodipodi:namedview
     id="namedview7"
     pagecolor="#ffffff"
     bordercolor="#000000"
     borderopacity="0.25"
     inkscape:showpageshadow="2"
     inkscape:pageopacity="0.0"
     inkscape:pagecheckerboard="0"
     inkscape:deskcolor="#d1d1d1"
     inkscape:document-units="mm"
     showgrid="false"
     inkscape:zoom="0.3581229"
     inkscape:cx="1799.6615"
     inkscape:cy="939.62158"
     inkscape:window-width="1920"
     inkscape:window-height="991"
     inkscape:window-x="-9"
     inkscape:window-y="-9"
     inkscape:window-maximized="1"
     inkscape:current-layer="layer1" /><defs
     id="defs2"><rect
       x="228.97168"
       y="502.62075"
       width="1351.4914"
       height="312.7418"
       id="rect293" /><rect
       x="122.86285"
       y="390.92725"
       width="1429.6768"
       height="407.68128"
       id="rect287" /><rect
       x="228.97168"
       y="502.62075"
       width="1351.4914"
       height="312.7418"
       id="rect2122" /><filter
       inkscape:collect="always"
       style="color-interpolation-filters:sRGB"
       id="filter7672"
       x="-0.093522905"
       y="-0.10234584"
       width="1.1870458"
       height="1.2046917"><feGaussianBlur
         inkscape:collect="always"
         stdDeviation="6.8553445"
         id="feGaussianBlur7674" /></filter></defs><g
     inkscape:label="Capa 1"
     inkscape:groupmode="layer"
     id="layer1"><path
       style="fill:#d9d8d8;stroke-width:1.81691"
       d="m 693.04003,554.41963 c 1.3116,-0.52485 2.8787,-0.46031 3.4824,0.14336 0.6037,0.60374 -0.4694,1.03316 -2.3847,0.95427 -2.1166,-0.0872 -2.5471,-0.51771 -1.0977,-1.0977 z"
       id="path1507" /><path
       style="fill:#d9d8d8;stroke-width:1.81691"
       d="m 702.95403,561.66931 c 1.7678,-0.46066 4.2206,-0.43038 5.4507,0.0674 1.2301,0.49771 -0.2162,0.87461 -3.2141,0.83758 -2.9979,-0.0371 -4.0044,-0.44424 -2.2366,-0.90489 z"
       id="path1505" /><path
       style="fill:#d9d8d8;stroke-width:1.81691"
       d="m 752.43013,564.97122 c 5.5398,-6.09908 15.0637,-12.11302 16.6579,-10.51876 0.4821,0.48208 -0.9107,1.44377 -3.095,2.13707 -2.1844,0.69329 -7.356,4.21302 -11.4926,7.82163 -7.471,6.51746 -7.4847,6.52119 -2.0703,0.56006 z"
       id="path1503" /><path
       style="fill:#d9d8d8;stroke-width:1.81691"
       d="m 760.60123,571.10066 c 3.4947,-3.99508 7.0696,-8.08141 7.9442,-9.08071 0.8746,-0.9993 0.7428,-0.18169 -0.2928,1.81691 -1.0356,1.99859 -4.6106,6.08492 -7.9443,9.08071 l -6.0613,5.44692 z"
       id="path1501" /><path
       style="fill:#d9d8d8;stroke-width:1.81691"
       d="m 764.73493,622.8863 c 0,-4.49684 0.3543,-6.33646 0.7873,-4.08804 0.4331,2.24842 0.4331,5.92766 0,8.17608 -0.433,2.24842 -0.7873,0.4088 -0.7873,-4.08804 z"
       id="path1499" /><path
       style="fill:#d9d8d8;stroke-width:1.81691"
       d="m 699.74663,617.57719 c 17.9836,-18.40914 34.5869,-35.06412 36.896,-37.0111 2.633,-2.21999 3.7785,-4.64396 3.072,-6.50078 -0.9138,-2.40171 -0.6865,-2.5239 1.2041,-0.64702 1.892,1.87845 -4.8385,9.39967 -35.7696,39.97193 l -38.1001,37.65812 z"
       id="path1487" /><path
       style="fill:#d9d8d8;stroke-width:1.81691"
       d="m 673.39473,658.73407 c 0,-0.75149 11.6509,-12.92779 25.8909,-27.05843 14.24,-14.13064 25.6663,-26.44658 25.3917,-27.36875 -0.2746,-0.92215 0.2274,-1.22757 1.1154,-0.6787 0.8881,0.54887 7.2887,-4.90923 14.2234,-12.12907 6.9348,-7.21985 11.9628,-12.36144 11.1735,-11.42576 -0.7894,0.93569 -0.016,3.37442 1.7195,5.4194 3.0184,3.55739 3.0123,3.60747 -0.1426,1.15808 -3.0195,-2.34434 -6.5031,0.64287 -41.3346,35.44474 -20.9205,20.90267 -38.0372,37.38999 -38.0372,36.63849 z"
       id="path1479" /><path
       style="fill:#d9d8d8;stroke-width:1.81691"
       d="m 749.70483,674.89058 c 0,-0.37728 1.4308,-1.80809 3.1795,-3.17958 2.8818,-2.26 2.946,-2.19573 0.686,0.68599 -2.3735,3.02651 -3.8655,3.98898 -3.8655,2.49359 z"
       id="path1477" /><path
       style="fill:#eda299;stroke-width:1.81691"
       d="m 666.12713,662.43471 c 0,-3.22533 95.4028,-98.29763 97.7979,-97.45911 1.0654,0.37299 -20.5033,22.97758 -47.9304,50.2324 -27.4271,27.25485 -49.8675,48.50685 -49.8675,47.22671 z"
       id="path1363" /><path
       style="fill:#9f9f9e;stroke-width:1.81691"
       d="m 749.70483,582.22814 c 0,-0.37728 1.4308,-1.8081 3.1795,-3.17959 2.8818,-2.25999 2.946,-2.19573 0.686,0.68599 -2.3735,3.02651 -3.8655,3.98898 -3.8655,2.4936 z"
       id="path1199" /><path
       style="fill:#9f9f9e;stroke-width:1.81691"
       d="m 765.14853,560.56343 c 2.5914,-2.11719 -4.964,0.73408 -7.8211,2.95155 -1.3037,1.01181 -3.2493,3.54211 -4.3235,5.6229 -1.5086,2.92213 -0.5556,2.5458 4.1872,-1.6534 3.3773,-2.99016 6.9581,-6.10462 7.9574,-6.92105 z"
       id="path1177" /><path
       style="fill:#9f9f9e;stroke-width:1.81691"
       d="m 728.81033,595.63244 c 8.9521,-8.99368 15.8676,-16.35215 15.368,-16.35215 -0.4997,0 -8.2328,7.35847 -17.1849,16.35215 -8.952,8.99369 -15.8676,16.35216 -15.3679,16.35216 0.4996,0 8.2328,-7.35847 17.1848,-16.35216 z"
       id="path1175" /><path
       style="fill:#9f9f9e;stroke-width:1.81691"
       d="m 707.00753,617.43531 c 1.8087,-1.99859 2.8797,-3.63381 2.3801,-3.63381 -0.4997,0 -2.3883,1.63522 -4.197,3.63381 -1.8087,1.9986 -2.8798,3.63382 -2.3801,3.63382 0.4996,0 2.3883,-1.63522 4.197,-3.63382 z"
       id="path1173" /><path
       style="fill:#9f9f9e;stroke-width:1.81691"
       d="m 663.43933,661.10194 c -0.6383,-1.03278 -0.499,-1.87701 0.3094,-1.87604 0.8085,9.6e-4 1.4267,-18.59962 1.3739,-41.33462 l -0.096,-41.33635 0.5876,38.10148 c 0.3568,23.13601 1.3288,38.83615 2.4748,39.97193 1.2997,1.28808 1.5651,1.02192 0.8525,-0.85491 -0.6984,-1.83941 11.3745,-15.12325 37.1389,-40.86416 20.9956,-20.97634 38.1737,-36.99736 38.1737,-35.60229 0,1.93014 0.8585,1.75962 3.591,-0.71328 1.975,-1.78738 3.1121,-4.02456 2.5269,-4.97151 -2.4462,-3.95798 17.2642,-18.62198 20.5772,-15.30892 1.4364,1.43643 -4.7573,8.43177 -7.4656,8.43177 -1.1056,0 -15.4374,13.44579 -31.8485,29.87956 -16.4112,16.43375 -30.5259,29.4547 -31.366,28.93545 -0.8402,-0.51927 -1.303,0.13863 -1.0284,1.46206 0.2746,1.3234 -0.5835,2.18153 -1.9069,1.90694 -1.3234,-0.27457 -1.9721,0.20318 -1.4415,1.06171 1.3279,2.14867 -14.2002,17.12217 -15.946,15.3764 -0.772,-0.77199 -1.1311,-0.1772 -0.798,1.32174 0.3331,1.49895 -0.4163,2.52096 -1.6655,2.27114 -1.2491,-0.24983 -2.0667,0.56778 -1.8169,1.8169 0.2499,1.24912 -0.5677,2.06673 -1.8169,1.81691 -1.2491,-0.24983 -2.0667,0.17478 -1.8169,0.94366 0.7988,2.45833 -7.367,11.5476 -8.5927,9.56443 z"
       id="path1171" /><path
       style="fill:#9f9f9e;stroke-width:1.81691"
       d="m 669.52093,662.36811 c 0.7708,-0.76908 19.7407,-1.17658 42.1553,-0.90557 l 40.7539,0.49277 -42.1553,0.90554 c -23.1854,0.49807 -41.5246,0.27632 -40.7539,-0.49274 z"
       id="path1169" /><path
       style="fill:#50aabf;stroke-width:1.81691"
       d="m 655.90583,578.4323 c -2.3254,-6.05971 20.0654,-19.5554 37.896,-22.84124 16.7215,-3.08145 38.4916,2.39291 53.109,13.35497 3.0063,2.25455 3.1912,3.12434 1.1795,5.54836 -2.1489,2.5892 -2.954,2.44336 -8.1075,-1.46859 -9.7907,-7.43196 -21.0458,-10.98981 -34.7922,-10.99815 -14.8944,-0.009 -26.4871,3.89848 -38.2863,12.90501 -9.1881,7.01348 -9.5999,7.1445 -10.9985,3.49964 z"
       id="path1095" /><path
       style="fill:#50aabf;stroke-width:1.81691"
       d="m 745.26923,672.11535 c -0.559,-0.90438 1.9695,-5.19682 5.6188,-9.53876 17.6433,-20.99215 19.9403,-49.34504 5.8036,-71.63635 -4.7612,-7.50753 -5.0985,-8.876 -2.7633,-11.21114 2.3351,-2.33516 3.226,-1.6932 7.2988,5.25921 10.6737,18.22075 13.7172,33.11664 10.2241,50.04134 -4.4067,21.35209 -21.2026,45.14263 -26.182,37.0857 z"
       id="path415" /><path
       style="fill:#505050;stroke-width:1.81691"
       d="m 735.20303,587.45663 c 13.4513,-13.99017 26.0707,-26.08808 28.0431,-26.88423 1.9724,-0.79615 3.2064,-1.20495 2.7422,-0.90845 -0.4641,0.2965 -13.0835,12.39441 -28.043,26.88423 l -27.1991,26.34514 z"
       id="path773" /><path
       style="fill:#505050;stroke-width:1.81691"
       d="m 705.19063,617.43558 c 1.8087,-1.99859 3.6973,-3.63381 4.197,-3.63381 0.4996,0 -0.5714,1.63522 -2.3801,3.63381 -1.8087,1.9986 -3.6974,3.63382 -4.197,3.63382 -0.4997,0 0.5714,-1.63522 2.3801,-3.63382 z"
       id="path771" /><path
       style="fill:#505050;stroke-width:1.81691"
       d="m 663.65313,656.49906 c 0.5752,-1.49895 1.3672,-2.72536 1.7599,-2.72536 0.3927,0 0.7141,1.22641 0.7141,2.72536 0,1.49895 -0.792,2.72536 -1.7599,2.72536 -0.9679,0 -1.2893,-1.22641 -0.7141,-2.72536 z"
       id="path769" /><path
       style="fill:#121c11;stroke-width:1.81691"
       d="m 663.27003,617.43558 c 0,-22.48421 0.2608,-31.6823 0.5796,-20.44019 0.3188,11.24211 0.3188,29.63828 0,40.88039 -0.3188,11.2421 -0.5796,2.04402 -0.5796,-20.4402 z"
       id="path595" /><path
       style="fill:#121c11;stroke-width:1.81691"
       d="m 689.29263,663.3188 c 11.2421,-0.31876 29.6383,-0.31876 40.8804,0 11.2421,0.31878 2.044,0.57959 -20.4402,0.57959 -22.4842,0 -31.6823,-0.26081 -20.4402,-0.57959 z"
       id="path593" /><text
       xml:space="preserve"
       style="font-size:3.175px;fill:#ffffff;stroke-width:0.264583"
       x="32.507462"
       y="59.413891"
       id="text233"><tspan
         sodipodi:role="line"
         id="tspan231"
         style="stroke-width:0.264583"
         x="32.507462"
         y="59.413891">m</tspan></text><text
       xml:space="preserve"
       transform="scale(0.26458333)"
       id="text285"
       style="fill:#ffffff;white-space:pre;shape-inside:url(#rect287)" /><text
       xml:space="preserve"
       transform="matrix(0.26458333,0,0,0.26458333,26.783754,-78.004048)"
       id="text291"
       style="font-style:normal;font-variant:normal;font-weight:normal;font-stretch:normal;font-size:85.3333px;font-family:sans-serif;-inkscape-font-specification:'sans-serif, Normal';font-variant-ligatures:normal;font-variant-caps:normal;font-variant-numeric:normal;font-variant-east-asian:normal;white-space:pre;shape-inside:url(#rect293);fill:#000000"><tspan
         x="228.97266"
         y="580.47325"
         id="tspan8176"><tspan
           style="font-weight:bold;-inkscape-font-specification:'sans-serif, Bold'"
           id="tspan8174">Marketing
</tspan></tspan><tspan
         x="228.97266"
         y="687.13987"
         id="tspan8180"><tspan
           style="font-weight:bold;-inkscape-font-specification:'sans-serif, Bold'"
           id="tspan8178">en la actividad
</tspan></tspan><tspan
         x="228.97266"
         y="793.8065"
         id="tspan8184"><tspan
           style="font-weight:bold;-inkscape-font-specification:'sans-serif, Bold'"
           id="tspan8182">comercial</tspan></tspan></text><text
       xml:space="preserve"
       transform="matrix(0.26458333,0,0,0.26458333,-13.298508,3.2646123)"
       id="text2120"
       style="font-style:normal;font-variant:normal;font-weight:normal;font-stretch:normal;font-size:85.3333px;font-family:sans-serif;-inkscape-font-specification:'sans-serif, Normal';font-variant-ligatures:normal;font-variant-caps:normal;font-variant-numeric:normal;font-variant-east-asian:normal;white-space:pre;shape-inside:url(#rect2122);fill:#d42825;fill-opacity:1"><tspan
         x="228.97266"
         y="580.47325"
         id="tspan8190"><tspan
           style="font-weight:bold;font-size:53.3333px;-inkscape-font-specification:'sans-serif, Bold';fill:#1a1a1a"
           id="tspan8186">CFGM |</tspan><tspan
           style="font-weight:bold;font-size:53.3333px;-inkscape-font-specification:'sans-serif, Bold'"
           id="tspan8188"> COMERCIO Y MARKETING</tspan></tspan></text><path
       d="m 853.10325,429.69068 c -9.09947,-15.16581 -24.26527,-25.78183 -42.46419,-25.78183 -25.78178,0 -45.49732,19.71549 -45.49732,45.49732 0,50.04703 27.29839,57.62994 87.96151,115.25984 60.66307,-57.6299 87.96145,-65.21281 87.96145,-115.25984 0,-25.78183 -19.71549,-45.49732 -45.49732,-45.49732 -18.19892,0 -33.36467,10.61602 -42.46413,25.78183 z"
       id="luz"
       style="fill:#ff0707;stroke-width:1.51657;filter:url(#filter7672)" /><g
       id="corazon"
       transform="translate(-5e-6,1.9260453e-4)"><path
         id="path4396"
         style="fill:#b90000;fill-opacity:1;stroke-width:1.51657"
         d="m 852.05859,428.01729 c -9.19157,-14.26635 -23.89877,-24.10861 -41.4197,-24.10861 -25.78175,0 -45.49696,19.71568 -45.49696,45.49748 0,49.75464 26.99524,57.56165 86.91666,114.27675 z" /><path
         id="path4398"
         style="fill:#ff0707;stroke-width:1.51657"
         d="m 852.05859,428.01729 v 135.66562 c 0.35207,0.33323 0.69055,0.64625 1.04489,0.98288 60.66301,-57.62984 87.96104,-65.21265 87.96104,-115.25963 0,-25.7818 -19.71516,-45.49748 -45.49696,-45.49748 -18.1989,0 -33.36463,10.61609 -42.46408,25.78189 -0.33899,-0.56498 -0.68922,-1.12125 -1.04489,-1.67328 z" /></g><path
       style="fill:#50aabf;fill-opacity:1;stroke:#50aabf;stroke-width:2.165;stroke-linecap:round;stroke-dasharray:8.66001, 6.495;stroke-dashoffset:0;stroke-opacity:1"
       d="m 782.31517,543.57522 73.5926,-72.17833 v 0"
       id="lineas" /></g></svg>
